#!OML:ASF H:\Terrain\Patient Classification 1\Animal1\Tuesday\Animal1.ASF
:FULLY-SPECIFIED
:DEGREES
1814
root 4.22657 16.388 -15.0519 -174.298 -169.527 -179.927
lowerback -5.06635 -0.110444 0.707987
upperback -0.371359 -0.197349 0.34923
thorax 2.45703 -0.0928962 -0.0523844
lowerneck 0.262395 3.64659 -5.92281
upperneck 7.39517 4.65929 5.32206
head 2.03533 2.28961 2.82309
rclavicle -1.58655e-014 -4.96962e-015
rhumerus -33.0375 -0.39145 -87.202
rradius 12.5081
rwrist -23.0534
rhand -2.58487 16.7384
rfingers 7.12502
rthumb 23.1123 -11.8954
lclavicle -1.58655e-014 -4.96962e-015
lhumerus -34.6229 20.8803 77.964
lradius 5.46315
lwrist -26.0811
lhand 25.2672 35.3856
lfingers 7.12502
lthumb 49.4064 56.9146
rfemur -16.3375 9.77553 26.1708
rtibia 26.9829
rfoot -35.2254 -38.1619
rtoes 36.5357
lfemur -14.0496 -8.07063 -24.2253
ltibia 20.191
lfoot -21.4898 32.5526
ltoes 28.8088
1815
root 4.24668 16.3927 -15.0554 -174.277 -169.528 -180
lowerback -5.02199 -0.112307 1.00483
upperback -0.364696 -0.217694 0.408156
thorax 2.43807 -0.100233 -0.159687
lowerneck 0.520726 3.59292 -5.83613
upperneck 7.37619 4.56659 5.40877
head 1.98818 2.24475 2.82767
rclavicle -2.13197e-014 8.54774e-015
rhumerus -33.089 -0.553353 -87.1819
rradius 12.5285
rwrist -23.6379
rhand -2.83201 17.6325
rfingers 7.12502
rthumb 22.8752 -11.0307
lclavicle -2.13197e-014 8.54774e-015
lhumerus -34.9145 20.7813 77.8446
lradius 5.9825
lwrist -25.9268
lhand 25.3318 35.4447
lfingers 7.12502
lthumb 49.4656 56.9436
rfemur -16.5244 9.66561 26.179
rtibia 26.8768
rfoot -36.6103 -38.3902
rtoes 38.3709
lfemur -14.1096 -8.01352 -24.2167
ltibia 20.2277
lfoot -21.0096 32.7566
ltoes 27.1525
1816
root 4.27022 16.3926 -15.0608 -174.223 -169.491 -179.828
lowerback -5.03836 -0.103372 1.12565
upperback -0.364824 -0.212217 0.38347
thorax 2.44666 -0.0960687 -0.252487
lowerneck 0.76087 3.55562 -5.77475
upperneck 7.32914 4.49778 5.51033
head 1.93299 2.21165 2.84206
rclavicle -4.43538e-015 3.57812e-015
rhumerus -33.1032 -1.16305 -86.8522
rradius 12.7091
rwrist -23.0251
rhand -2.23741 17.8812
rfingers 7.12502
rthumb 23.4457 -10.7103
lclavicle -4.43538e-015 3.57812e-015
lhumerus -35.02 20.6711 77.7698
lradius 6.21878
lwrist -25.8325
lhand 26.2723 36.1668
lfingers 7.12502
lthumb 50.3267 57.2163
rfemur -16.8214 9.64522 25.8764
rtibia 26.8151
rfoot -36.1288 -38.7777
rtoes 39.1938
lfemur -14.2345 -7.94338 -24.4832
ltibia 20.1865
lfoot -20.6014 32.9673
ltoes 26.6882
1817
root 4.29326 16.3908 -15.0653 -174.077 -169.389 -179.611
lowerback -5.1652 -0.0695079 1.19953
upperback -0.391848 -0.172351 0.354832
thorax 2.49011 -0.0751725 -0.320805
lowerneck 0.862707 3.54272 -5.69317
upperneck 7.31093 4.47037 5.58006
head 1.91054 2.20045 2.84707
rclavicle 6.1499e-015 -7.7526e-015
rhumerus -33.0849 -1.81853 -86.5133
rradius 12.7479
rwrist -22.4847
rhand -1.92926 17.5402
rfingers 7.12502
rthumb 23.7412 -11.0132
lclavicle 6.1499e-015 -7.7526e-015
lhumerus -35.0627 20.5666 77.7369
lradius 6.31212
lwrist -25.6753
lhand 28.6922 37.7738
lfingers 7.12502
lthumb 52.5274 57.5609
rfemur -17.2367 9.84655 25.4684
rtibia 26.7812
rfoot -35.5421 -38.6125
rtoes 41.0073
lfemur -14.378 -8.00679 -24.7765
ltibia 19.9982
lfoot -20.6063 33.0111
ltoes 27.9552
1818
root 4.31399 16.3925 -15.0654 -173.989 -169.285 -179.493
lowerback -5.25003 -0.0664054 1.33325
upperback -0.428795 -0.178214 0.395188
thorax 2.49926 -0.0769934 -0.354907
lowerneck 0.757601 3.59415 -5.71083
upperneck 7.51729 4.53228 5.69609
head 1.99074 2.23369 2.89813
rclavicle 2.15557e-014 -7.95139e-015
rhumerus -33.0786 -2.13544 -86.3411
rradius 12.5239
rwrist -22.721
rhand -2.47339 17.6627
rfingers 7.12502
rthumb 23.2193 -10.9575
lclavicle 2.15557e-014 -7.95139e-015
lhumerus -35.3133 20.5211 77.6025
lradius 6.73081
lwrist -26.2554
lhand 31.5499 38.1167
lfingers 7.12502
lthumb 55.0947 56.1867
rfemur -17.5378 10.1823 25.1788
rtibia 26.7096
rfoot -34.4102 -38.9149
rtoes 41.3048
lfemur -14.3392 -8.04587 -24.9528
ltibia 19.6819
lfoot -20.948 32.8003
ltoes 28.6018
1819
root 4.33224 16.4022 -15.0601 -174.012 -169.259 -179.437
lowerback -5.28286 -0.0889971 1.52992
upperback -0.450244 -0.222508 0.477163
thorax 2.49449 -0.0975355 -0.384247
lowerneck 0.648108 3.64622 -5.76143
upperneck 7.91878 4.59164 5.77976
head 2.13662 2.26314 2.95008
rclavicle -1.72818e-014 6.75868e-015
rhumerus -33.2095 -2.91323 -85.7742
rradius 12.5338
rwrist -21.6794
rhand -2.70894 17.3086
rfingers 7.12502
rthumb 22.9933 -11.34
lclavicle -1.72818e-014 6.75868e-015
lhumerus -35.5803 20.4748 77.4606
lradius 7.11764
lwrist -27.1603
lhand 32.556 36.6449
lfingers 7.12502
lthumb 55.9891 54.0431
rfemur -17.6261 10.4742 24.9803
rtibia 26.616
rfoot -32.8561 -39.4592
rtoes 39.6463
lfemur -14.0728 -8.00082 -25.078
ltibia 19.2364
lfoot -21.3493 32.537
ltoes 28.8565
1820
root 4.34752 16.4093 -15.053 -174.042 -169.253 -179.327
lowerback -5.32992 -0.0473135 1.68406
upperback -0.493289 -0.17754 0.512567
thorax 2.47701 -0.0740571 -0.431076
lowerneck 0.736106 3.63088 -5.53611
upperneck 8.1873 4.56336 5.64323
head 2.21805 2.24981 2.86681
rclavicle -2.82771e-014 0
rhumerus -33.398 -4.60046 -84.7624
rradius 12.6091
rwrist -19.2208
rhand -3.77764 16.5818
rfingers 7.12502
rthumb 21.9675 -12.1908
lclavicle -2.82771e-014 0
lhumerus -35.6451 20.2806 77.4979
lradius 7.15706
lwrist -27.2878
lhand 32.1932 35.6666
lfingers 7.12502
lthumb 55.6672 53.3114
rfemur -17.6291 10.817 24.7259
rtibia 26.4956
rfoot -31.7622 -39.4849
rtoes 38.871
lfemur -13.7617 -8.03073 -25.2636
ltibia 18.7283
lfoot -21.1832 32.6425
ltoes 29.4338
1821
root 4.36265 16.4114 -15.0514 -173.985 -169.258 -179.058
lowerback -5.41289 0.0229228 1.68202
upperback -0.56935 -0.083578 0.468364
thorax 2.44695 -0.0277006 -0.468533
lowerneck 0.819588 3.60166 -5.17278
upperneck 8.22552 4.52636 5.43778
head 2.22813 2.23593 2.72923
rclavicle 4.47266e-016 2.38542e-015
rhumerus -33.4951 -6.11583 -83.991
rradius 12.5776
rwrist -17.5704
rhand -5.71595 16.4971
rfingers 7.12502
rthumb 20.1054 -12.4826
lclavicle 4.47266e-016 2.38542e-015
lhumerus -35.5161 20.0013 77.6252
lradius 7.14993
lwrist -27.3201
lhand 33.1252 35.7678
lfingers 7.12502
lthumb 56.4926 52.7689
rfemur -17.729 11.3213 24.2877
rtibia 26.3394
rfoot -30.0042 -39.7754
rtoes 38.7355
lfemur -13.6442 -8.22444 -25.587
ltibia 18.2678
lfoot -20.6886 33.0096
ltoes 29.824
1822
root 4.37915 16.4126 -15.0513 -173.944 -169.291 -178.884
lowerback -5.46226 0.0149751 1.75761
upperback -0.579657 -0.100159 0.485062
thorax 2.46354 -0.0352386 -0.49504
lowerneck 0.8395 3.60388 -5.12703
upperneck 8.06667 4.5351 5.39141
head 2.17313 2.24093 2.70045
rclavicle -2.32578e-014 6.75868e-015
rhumerus -33.4358 -6.72418 -83.6804
rradius 12.5448
rwrist -17.0912
rhand -5.76824 16.362
rfingers 7.12502
rthumb 20.0551 -12.6229
lclavicle -2.32578e-014 6.75868e-015
lhumerus -35.3759 19.9425 77.6875
lradius 7.22351
lwrist -27.4802
lhand 33.938 35.3596
lfingers 7.12502
lthumb 57.2083 51.7707
rfemur -17.7835 11.9217 23.9679
rtibia 26.2079
rfoot -27.3101 -40.4791
rtoes 37.9435
lfemur -13.5386 -8.38539 -25.8056
ltibia 17.8605
lfoot -20.4278 33.1745
ltoes 29.9643
1823
root 4.39432 16.4101 -15.0428 -174.12 -169.324 -178.861
lowerback -5.34916 -0.0723065 1.94806
upperback -0.526797 -0.229854 0.637671
thorax 2.4518 -0.0984452 -0.454355
lowerneck 0.806861 3.626 -5.44757
upperneck 8.02732 4.56444 5.51396
head 2.15626 2.24975 2.80033
rclavicle 1.99033e-014 -7.55382e-015
rhumerus -33.3835 -6.5259 -83.6205
rradius 12.4184
rwrist -17.2299
rhand -5.22251 16.5894
rfingers 7.12502
rthumb 20.5796 -12.3397
lclavicle 1.99033e-014 -7.55382e-015
lhumerus -35.4069 20.1749 77.7494
lradius 7.2551
lwrist -27.3948
lhand 33.5754 34.7484
lfingers 7.12502
lthumb 56.8895 51.4262
rfemur -17.5026 12.4807 23.8929
rtibia 26.1076
rfoot -25.5965 -40.9358
rtoes 37.073
lfemur -13.1392 -8.46913 -25.9091
ltibia 17.5233
lfoot -20.4132 33.0174
ltoes 31.1525
